# xmcd
#
# Track frame offsets:
#	150
#	13987
#	25173
#	36939
#	47206
#	58942
#	70301
#	81813
#	94516
#	107262
#	120045
#	132167
#	143775
#	157237
#	168041
#	181250
#	195323
#	209071
#	224192
#	236216
#
# Disc length: 3373 seconds
#
# Revision: 2
# Processed by: cddbd v1.5.2PL0 Copyright (c) Steve Scherf et al.
# Submitted via: audiograbber 1.83.01
#
DISCID=1f0d2b14
DTITLE=Various Artist - Motown Floorshakers - CD2
DYEAR=2012
DGENRE=Motown
TTITLE0=Jr. Walker and The All Stars - Tune Up
TTITLE1=Hattie Littles - Love Trouble Heartache and Misery
TTITLE2=Gino Parks - For This I Thank You
TTITLE3=Shorty Long - Out To Get You
TTITLE4=Mary Wells - Shop Around
TTITLE5=The Temptations - I Want A Love I Can See
TTITLE6=The Four Tops - Gotta Say It, Gonna Tell It Like It Is
TTITLE7=Marvin Gaye - Lucky Lucky Me
TTITLE8=Kim Weston - I'm Gonna Make It Up To You
TTITLE9=Frank Wilson - 'Til You Were Gone
TTITLE10=Martha Reeves and The Vandellas - Show Me The Way
TTITLE11=The Dalton Boys - I've Been Cheated
TTITLE12=Marvin Gaye and Tammi Terrell - That's How It Is (Since You've Been Gone
TTITLE12=)
TTITLE13=Diana Ross - Something On My Mind
TTITLE14=Odyssey - Battend Ships
TTITLE15=The Isley Brothers - My Love Is Your Love (Forever)
TTITLE16=Hearts Of Stone - If I Could Give You The World
TTITLE17=Thelma Houston - Nothing Left To Give
TTITLE18=Reuben Howell - You Can't Stop A Man In Love
TTITLE19=O.C Smith - I'm Glad I Fell In Love With You
EXTD=
EXTT0=
EXTT1=
EXTT2=
EXTT3=
EXTT4=
EXTT5=
EXTT6=
EXTT7=
EXTT8=
EXTT9=
EXTT10=
EXTT11=
EXTT12=
EXTT13=
EXTT14=
EXTT15=
EXTT16=
EXTT17=
EXTT18=
EXTT19=
PLAYORDER=
